<mxfile host="65bd71144e">
    <diagram id="Ht1ZjIOLPsYTiyKKzyRw" name="Page-1">
        <mxGraphModel dx="1470" dy="1567" grid="1" gridSize="10" guides="1" tooltips="1" connect="1" arrows="1" fold="1" page="1" pageScale="1" pageWidth="850" pageHeight="1100" math="0" shadow="0">
            <root>
                <mxCell id="0"/>
                <mxCell id="1" parent="0"/>
                <mxCell id="2" value="Pet" style="swimlane;fontStyle=0;align=center;verticalAlign=top;childLayout=stackLayout;horizontal=1;startSize=26;horizontalStack=0;resizeParent=1;resizeLast=0;collapsible=1;marginBottom=0;rounded=0;shadow=0;strokeWidth=1;" vertex="1" parent="1">
                    <mxGeometry x="-715" y="90" width="420" height="368" as="geometry">
                        <mxRectangle x="550" y="140" width="160" height="26" as="alternateBounds"/>
                    </mxGeometry>
                </mxCell>
                <mxCell id="3" value="- petId: int&#10;- petName: String&#10;- species: String&#10;- colour: String&#10;- breed: String&#10;- care: CareProfile&#10;- owner: Client&#10;&#10;" style="text;align=left;verticalAlign=top;spacingLeft=4;spacingRight=4;overflow=hidden;rotatable=0;points=[[0,0.5],[1,0.5]];portConstraint=eastwest;" vertex="1" parent="2">
                    <mxGeometry y="26" width="420" height="104" as="geometry"/>
                </mxCell>
                <mxCell id="4" value="" style="line;html=1;strokeWidth=1;align=left;verticalAlign=middle;spacingTop=-1;spacingLeft=3;spacingRight=3;rotatable=0;labelPosition=right;points=[];portConstraint=eastwest;" vertex="1" parent="2">
                    <mxGeometry y="130" width="420" height="8" as="geometry"/>
                </mxCell>
                <mxCell id="5" value="&lt;div&gt;&lt;span style=&quot;background-color: initial;&quot;&gt;+ Pet(&lt;/span&gt;&lt;span style=&quot;background-color: initial;&quot;&gt;petId: int,&amp;nbsp;&lt;/span&gt;&lt;span style=&quot;background-color: initial;&quot;&gt;name: String, &lt;/span&gt;&lt;span style=&quot;background-color: initial;&quot;&gt;species: String,&lt;/span&gt;&lt;span style=&quot;background-color: initial;&quot;&gt;&amp;nbsp;colour: String, &lt;/span&gt;&lt;span style=&quot;background-color: initial;&quot;&gt;breed: String)&lt;/span&gt;&lt;br&gt;&lt;/div&gt;&lt;div&gt;+ getPetId(): int&lt;/div&gt;&lt;div&gt;+ setPetId(petId: int): void&lt;/div&gt;&lt;div&gt;+ getPetName(): String&lt;/div&gt;&lt;div style=&quot;&quot;&gt;+ setPetName(name: String): void&lt;/div&gt;&lt;div style=&quot;&quot;&gt;+ getSpecies(): String&lt;/div&gt;&lt;div&gt;+ setSpecies(species: String): void&lt;/div&gt;&lt;div&gt;+ getColour(): String&lt;/div&gt;&lt;div&gt;+ setColour(colour: String): void&amp;nbsp;&lt;/div&gt;&lt;div&gt;+ getBreed(): String&lt;/div&gt;&lt;div&gt;+ setBreed(breed: String): void&lt;/div&gt;&lt;div&gt;&amp;nbsp;+ getCareProfile(): CareProfile&lt;/div&gt;&lt;div&gt;+ setCareProfile(careProfile: CareProfile): void&lt;br&gt;&lt;/div&gt;&lt;div&gt;&lt;div&gt;+ getOwner(): Client&lt;/div&gt;&lt;div&gt;+ setOwner(owner: Client): void&lt;/div&gt;&lt;/div&gt;" style="text;html=1;align=left;verticalAlign=middle;resizable=0;points=[];autosize=1;strokeColor=none;fillColor=none;" vertex="1" parent="2">
                    <mxGeometry y="138" width="420" height="230" as="geometry"/>
                </mxCell>
                <mxCell id="6" value="Client" style="swimlane;fontStyle=0;align=center;verticalAlign=top;childLayout=stackLayout;horizontal=1;startSize=26;horizontalStack=0;resizeParent=1;resizeLast=0;collapsible=1;marginBottom=0;rounded=0;shadow=0;strokeWidth=1;" vertex="1" parent="1">
                    <mxGeometry x="-159" y="90" width="430" height="248" as="geometry">
                        <mxRectangle x="550" y="140" width="160" height="26" as="alternateBounds"/>
                    </mxGeometry>
                </mxCell>
                <mxCell id="7" value="- clientId: int&#10;- clientName:String&#10;- phoneNumber: String&#10;- address: String" style="text;align=left;verticalAlign=top;spacingLeft=4;spacingRight=4;overflow=hidden;rotatable=0;points=[[0,0.5],[1,0.5]];portConstraint=eastwest;" vertex="1" parent="6">
                    <mxGeometry y="26" width="430" height="74" as="geometry"/>
                </mxCell>
                <mxCell id="8" value="" style="line;html=1;strokeWidth=1;align=left;verticalAlign=middle;spacingTop=-1;spacingLeft=3;spacingRight=3;rotatable=0;labelPosition=right;points=[];portConstraint=eastwest;" vertex="1" parent="6">
                    <mxGeometry y="100" width="430" height="8" as="geometry"/>
                </mxCell>
                <mxCell id="9" value="&lt;div&gt;+ Client(clientId: int, clientName: String, phoneNumber: String, address: String)&lt;/div&gt;&lt;div&gt;+ getClientId(): int&amp;nbsp;&lt;/div&gt;&lt;div&gt;+ setClientId(clientId: int): void&lt;/div&gt;&lt;div&gt;+ getClientName(): String&lt;/div&gt;&lt;div&gt;+ setClientName(clientName: String): void&lt;/div&gt;&lt;div&gt;+ getPhoneNumber(): String&lt;/div&gt;&lt;div&gt;+ setPhoneNumber(phoneNumber: String): void&lt;/div&gt;&lt;div&gt;+ getAddress(): String&lt;/div&gt;&lt;div&gt;+ setAddress(address: String): void&amp;nbsp;&lt;/div&gt;" style="text;html=1;align=left;verticalAlign=middle;resizable=0;points=[];autosize=1;strokeColor=none;fillColor=none;" vertex="1" parent="6">
                    <mxGeometry y="108" width="430" height="140" as="geometry"/>
                </mxCell>
                <mxCell id="10" style="edgeStyle=none;curved=0;rounded=0;orthogonalLoop=1;jettySize=auto;html=1;exitX=0.5;exitY=0;exitDx=0;exitDy=0;entryX=0.5;entryY=0;entryDx=0;entryDy=0;fontSize=12;startSize=8;endSize=8;endArrow=diamondThin;endFill=1;" edge="1" parent="1" source="11" target="2">
                    <mxGeometry relative="1" as="geometry">
                        <Array as="points">
                            <mxPoint x="675"/>
                            <mxPoint x="70"/>
                            <mxPoint x="-505"/>
                        </Array>
                    </mxGeometry>
                </mxCell>
                <mxCell id="11" value="CareProfile" style="swimlane;fontStyle=0;align=center;verticalAlign=top;childLayout=stackLayout;horizontal=1;startSize=26;horizontalStack=0;resizeParent=1;resizeLast=0;collapsible=1;marginBottom=0;rounded=0;shadow=0;strokeWidth=1;" vertex="1" parent="1">
                    <mxGeometry x="405" y="90" width="540" height="220" as="geometry">
                        <mxRectangle x="550" y="140" width="160" height="26" as="alternateBounds"/>
                    </mxGeometry>
                </mxCell>
                <mxCell id="12" value="&lt;span style=&quot;&quot;&gt;- feedingInstructions: String&lt;/span&gt;&lt;br style=&quot;padding: 0px; margin: 0px;&quot;&gt;&lt;div style=&quot;&quot;&gt;&lt;span style=&quot;background-color: initial;&quot;&gt;- medicationList: String[]&lt;/span&gt;&lt;/div&gt;&lt;span style=&quot;&quot;&gt;&lt;div style=&quot;&quot;&gt;&lt;span style=&quot;background-color: initial;&quot;&gt;- medicationInstructions: String&lt;/span&gt;&lt;/div&gt;&lt;/span&gt;" style="text;html=1;align=left;verticalAlign=middle;resizable=0;points=[];autosize=1;strokeColor=none;fillColor=none;" vertex="1" parent="11">
                    <mxGeometry y="26" width="540" height="60" as="geometry"/>
                </mxCell>
                <mxCell id="13" value="" style="line;html=1;strokeWidth=1;align=left;verticalAlign=middle;spacingTop=-1;spacingLeft=3;spacingRight=3;rotatable=0;labelPosition=right;points=[];portConstraint=eastwest;" vertex="1" parent="11">
                    <mxGeometry y="86" width="540" height="14" as="geometry"/>
                </mxCell>
                <mxCell id="14" value="&lt;div&gt;+ CareProfile(feedingInstructions: String, medicationList: String[], medicationInstructions: String)&lt;/div&gt;&lt;div&gt;+ getFeedingInstructions(): String&lt;/div&gt;&lt;div&gt;+ setFeedingInstructions(feedingInstructions: String): void&lt;/div&gt;&lt;div&gt;+ getMedicationList(): String[]&lt;/div&gt;&lt;div&gt;+ setMedicationList(medicationList: String[]): void&lt;/div&gt;&lt;div&gt;+ getMedicationInstructions(): String&lt;/div&gt;&lt;div&gt;+ setMedicationInstructions(medicationInstructions: String): void&lt;/div&gt;" style="text;html=1;align=left;verticalAlign=middle;resizable=0;points=[];autosize=1;strokeColor=none;fillColor=none;" vertex="1" parent="11">
                    <mxGeometry y="100" width="540" height="110" as="geometry"/>
                </mxCell>
                <mxCell id="15" value="Boarding" style="swimlane;fontStyle=0;align=center;verticalAlign=top;childLayout=stackLayout;horizontal=1;startSize=26;horizontalStack=0;resizeParent=1;resizeLast=0;collapsible=1;marginBottom=0;rounded=0;shadow=0;strokeWidth=1;" vertex="1" parent="1">
                    <mxGeometry x="-715" y="530" width="590" height="400" as="geometry">
                        <mxRectangle x="550" y="140" width="160" height="26" as="alternateBounds"/>
                    </mxGeometry>
                </mxCell>
                <mxCell id="16" value="- boardingId: int&#10;- checkIn: Date&#10;- checkOut: Date&#10;- pet: Pet&#10;- client: Client&#10;- careProfile: CareProfile&#10;- boardingFee: final double&#10;" style="text;align=left;verticalAlign=top;spacingLeft=4;spacingRight=4;overflow=hidden;rotatable=0;points=[[0,0.5],[1,0.5]];portConstraint=eastwest;" vertex="1" parent="15">
                    <mxGeometry y="26" width="590" height="114" as="geometry"/>
                </mxCell>
                <mxCell id="17" value="" style="line;html=1;strokeWidth=1;align=left;verticalAlign=middle;spacingTop=-1;spacingLeft=3;spacingRight=3;rotatable=0;labelPosition=right;points=[];portConstraint=eastwest;" vertex="1" parent="15">
                    <mxGeometry y="140" width="590" height="40" as="geometry"/>
                </mxCell>
                <mxCell id="18" value="&lt;div&gt;+ Boarding(boardingId: int, checkIn: Date, checkOut: Date, pet: Pet, client: Client, careProfile: CareProfile)&lt;/div&gt;&lt;div&gt;+ getBoardingId(): int&lt;/div&gt;&lt;div&gt;+ setBoardingId(boardingId: int): void&lt;/div&gt;&lt;div&gt;+ getCheckIn(): Date&lt;/div&gt;&lt;div&gt;+ setCheckIn(checkIn: Date): void&lt;/div&gt;&lt;div&gt;+ getCheckOut(): Date&lt;/div&gt;&lt;div&gt;+ setCheckOut(checkOut: Date): void&lt;/div&gt;&lt;div&gt;+ getPet(): Pet&lt;/div&gt;&lt;div&gt;+ setPet(pet: Pet): void&lt;/div&gt;&lt;div&gt;+ getClient(): Client&lt;/div&gt;&lt;div&gt;+ setClient(client: Client): void&lt;/div&gt;&lt;div&gt;+ getCareProfile(): CareProfile&lt;/div&gt;&lt;div&gt;+ setCareProfile(careProfile: CareProfile):&lt;/div&gt;&lt;div&gt;+ calculateBoardingCost(&lt;span style=&quot;background-color: initial;&quot;&gt;checkIn: Date, checkOut: Date&lt;/span&gt;&lt;span style=&quot;background-color: initial;&quot;&gt;): double&lt;/span&gt;&lt;/div&gt;" style="text;html=1;align=left;verticalAlign=middle;resizable=0;points=[];autosize=1;strokeColor=none;fillColor=none;" vertex="1" parent="15">
                    <mxGeometry y="180" width="590" height="220" as="geometry"/>
                </mxCell>
                <mxCell id="19" style="edgeStyle=none;curved=1;rounded=0;orthogonalLoop=1;jettySize=auto;html=1;exitX=0.5;exitY=0;exitDx=0;exitDy=0;fontSize=12;startSize=8;endSize=8;dashed=1;dashPattern=8 8;" edge="1" parent="1" source="20">
                    <mxGeometry relative="1" as="geometry">
                        <mxPoint x="797" y="310" as="targetPoint"/>
                    </mxGeometry>
                </mxCell>
                <mxCell id="20" value="Printout" style="swimlane;fontStyle=0;align=center;verticalAlign=top;childLayout=stackLayout;horizontal=1;startSize=26;horizontalStack=0;resizeParent=1;resizeLast=0;collapsible=1;marginBottom=0;rounded=0;shadow=0;strokeWidth=1;" vertex="1" parent="1">
                    <mxGeometry x="672" y="530" width="250" height="150" as="geometry">
                        <mxRectangle x="550" y="140" width="160" height="26" as="alternateBounds"/>
                    </mxGeometry>
                </mxCell>
                <mxCell id="21" value="- content: String&#10;- careProfile: CareProfile   " style="text;align=left;verticalAlign=top;spacingLeft=4;spacingRight=4;overflow=hidden;rotatable=0;points=[[0,0.5],[1,0.5]];portConstraint=eastwest;" vertex="1" parent="20">
                    <mxGeometry y="26" width="250" height="44" as="geometry"/>
                </mxCell>
                <mxCell id="22" value="" style="line;html=1;strokeWidth=1;align=left;verticalAlign=middle;spacingTop=-1;spacingLeft=3;spacingRight=3;rotatable=0;labelPosition=right;points=[];portConstraint=eastwest;" vertex="1" parent="20">
                    <mxGeometry y="70" width="250" height="8" as="geometry"/>
                </mxCell>
                <mxCell id="23" value="&lt;div&gt;+ Printout()&lt;/div&gt;&lt;div&gt;+ getContent(): String&lt;/div&gt;&lt;div&gt;+ setContent(careProfile: CareProfile): void&lt;/div&gt;&lt;div&gt;+ print(): void&lt;/div&gt;" style="text;html=1;align=left;verticalAlign=middle;resizable=0;points=[];autosize=1;strokeColor=none;fillColor=none;" vertex="1" parent="20">
                    <mxGeometry y="78" width="250" height="70" as="geometry"/>
                </mxCell>
                <mxCell id="24" value="Employee" style="swimlane;fontStyle=0;align=center;verticalAlign=top;childLayout=stackLayout;horizontal=1;startSize=26;horizontalStack=0;resizeParent=1;resizeLast=0;collapsible=1;marginBottom=0;rounded=0;shadow=0;strokeWidth=1;" vertex="1" parent="1">
                    <mxGeometry x="20" y="530" width="370" height="316" as="geometry">
                        <mxRectangle x="550" y="140" width="160" height="26" as="alternateBounds"/>
                    </mxGeometry>
                </mxCell>
                <mxCell id="25" value="&lt;div&gt;- employeeName:String&lt;/div&gt;&lt;div&gt;- EmployeeId:String&lt;/div&gt;&lt;div&gt;- managerID:String&lt;/div&gt;&lt;div&gt;- supervisedEmployees:Employee[]&lt;/div&gt;&lt;div&gt;&lt;br&gt;&lt;/div&gt;" style="text;html=1;align=left;verticalAlign=middle;resizable=0;points=[];autosize=1;strokeColor=none;fillColor=none;" vertex="1" parent="24">
                    <mxGeometry y="26" width="370" height="90" as="geometry"/>
                </mxCell>
                <mxCell id="26" value="" style="line;html=1;strokeWidth=1;align=left;verticalAlign=middle;spacingTop=-1;spacingLeft=3;spacingRight=3;rotatable=0;labelPosition=right;points=[];portConstraint=eastwest;" vertex="1" parent="24">
                    <mxGeometry y="116" width="370" height="40" as="geometry"/>
                </mxCell>
                <mxCell id="27" value="&lt;div&gt;+ Employee(name:String, employeeId:String)&lt;br&gt;+ Employee(name:String, employeeId:String, managerID:String)&lt;br&gt;+ getEmployeeName(): String&lt;br&gt;+ setEmployeeName(name:String)&lt;br&gt;+ getEmployeeId(): String&lt;/div&gt;&lt;div&gt;+ setEmployeeId(): void&lt;br&gt;+ getManagerID(): String&lt;br&gt;+ setManagerID(newManager: String)&lt;br&gt;+ getSupervisedEmployees(): Employee[]&lt;/div&gt;&lt;div&gt;+ addSupervisedEmployee(newEmployee:Employee)&lt;br&gt;&lt;/div&gt;" style="text;html=1;align=left;verticalAlign=middle;resizable=0;points=[];autosize=1;strokeColor=none;fillColor=none;" vertex="1" parent="24">
                    <mxGeometry y="156" width="370" height="160" as="geometry"/>
                </mxCell>
                <mxCell id="28" style="edgeStyle=none;curved=0;rounded=0;orthogonalLoop=1;jettySize=auto;html=1;exitX=0.75;exitY=0;exitDx=0;exitDy=0;entryX=0.999;entryY=0.468;entryDx=0;entryDy=0;entryPerimeter=0;fontSize=12;startSize=8;endSize=8;endArrow=none;endFill=0;" edge="1" parent="24" source="24" target="25">
                    <mxGeometry relative="1" as="geometry">
                        <Array as="points">
                            <mxPoint x="278" y="-90"/>
                            <mxPoint x="420" y="-90"/>
                            <mxPoint x="420" y="68"/>
                        </Array>
                    </mxGeometry>
                </mxCell>
                <mxCell id="29" style="edgeStyle=none;curved=1;rounded=0;orthogonalLoop=1;jettySize=auto;html=1;exitX=0.75;exitY=0;exitDx=0;exitDy=0;fontSize=12;startSize=8;endSize=8;dashed=1;endArrow=none;endFill=0;dashPattern=8 8;" edge="1" parent="1" source="30">
                    <mxGeometry relative="1" as="geometry">
                        <mxPoint x="-76.53846153846143" y="480" as="targetPoint"/>
                    </mxGeometry>
                </mxCell>
                <mxCell id="30" value="Appointment" style="swimlane;fontStyle=0;align=center;verticalAlign=top;childLayout=stackLayout;horizontal=1;startSize=26;horizontalStack=0;resizeParent=1;resizeLast=0;collapsible=1;marginBottom=0;rounded=0;shadow=0;strokeWidth=1;" vertex="1" parent="1">
                    <mxGeometry x="-550" y="1001" width="640" height="398" as="geometry">
                        <mxRectangle x="550" y="140" width="160" height="26" as="alternateBounds"/>
                    </mxGeometry>
                </mxCell>
                <mxCell id="31" value="- appointmentId: String &#10;- appointmentDate: Date&#10;- appointmentDuration: int&#10;- reason: String&#10;- bookedPet: Pet&#10;- employee: Employee" style="text;align=left;verticalAlign=top;spacingLeft=4;spacingRight=4;overflow=hidden;rotatable=0;points=[[0,0.5],[1,0.5]];portConstraint=eastwest;" vertex="1" parent="30">
                    <mxGeometry y="26" width="640" height="114" as="geometry"/>
                </mxCell>
                <mxCell id="32" value="" style="line;html=1;strokeWidth=1;align=left;verticalAlign=middle;spacingTop=-1;spacingLeft=3;spacingRight=3;rotatable=0;labelPosition=right;points=[];portConstraint=eastwest;" vertex="1" parent="30">
                    <mxGeometry y="140" width="640" height="8" as="geometry"/>
                </mxCell>
                <mxCell id="33" value="&lt;div&gt;+ Appointment(appointmentId: String, appointmentDate: Date, reason: String, bookedPet: Pet, employee: Employee)&lt;/div&gt;&lt;div&gt;+ getAppointmentId(): String&lt;/div&gt;&lt;div&gt;+ setAppointmentId(appointmentId: String): void&lt;/div&gt;&lt;div&gt;+ getAppointmentDate(): Date&amp;nbsp;&lt;/div&gt;&lt;div&gt;+ setAppointmentDate(appointmentDate: Date): void&lt;/div&gt;&lt;div&gt;+ getA&lt;span style=&quot;background-color: initial;&quot;&gt;ppointmentDuration(): int&lt;/span&gt;&lt;/div&gt;&lt;div&gt;+ setA&lt;span style=&quot;background-color: initial;&quot;&gt;ppointmentDuration(appointmentDuration: int): void&lt;/span&gt;&lt;/div&gt;&lt;div&gt;+ getReason(): String&amp;nbsp;&lt;/div&gt;&lt;div&gt;+ setReason(reason: String): void&amp;nbsp;&lt;/div&gt;&lt;div&gt;+ getBookedPet(): Pet&lt;/div&gt;&lt;div&gt;+ setBookedPet(bookedPet: Pet): void&lt;/div&gt;&lt;div&gt;+ getEmployee(): Employee&lt;/div&gt;&lt;div&gt;+ setEmployee(employee: Employee): void&lt;/div&gt;&lt;div&gt;&amp;nbsp; &amp;nbsp;&amp;nbsp;&lt;br&gt;&lt;/div&gt;" style="text;html=1;align=left;verticalAlign=middle;resizable=0;points=[];autosize=1;strokeColor=none;fillColor=none;" vertex="1" parent="30">
                    <mxGeometry y="148" width="640" height="220" as="geometry"/>
                </mxCell>
                <mxCell id="34" style="edgeStyle=none;curved=1;rounded=0;orthogonalLoop=1;jettySize=auto;html=1;exitX=0.5;exitY=1;exitDx=0;exitDy=0;entryX=0.75;entryY=1;entryDx=0;entryDy=0;fontSize=12;startSize=8;endSize=8;" edge="1" parent="30">
                    <mxGeometry relative="1" as="geometry">
                        <mxPoint x="320" y="398" as="sourcePoint"/>
                        <mxPoint x="479.9999999999998" y="398" as="targetPoint"/>
                    </mxGeometry>
                </mxCell>
                <mxCell id="35" value="Invoice" style="swimlane;fontStyle=0;align=center;verticalAlign=top;childLayout=stackLayout;horizontal=1;startSize=26;horizontalStack=0;resizeParent=1;resizeLast=0;collapsible=1;marginBottom=0;rounded=0;shadow=0;strokeWidth=1;" vertex="1" parent="1">
                    <mxGeometry x="208" y="1050" width="470" height="300" as="geometry">
                        <mxRectangle x="550" y="140" width="160" height="26" as="alternateBounds"/>
                    </mxGeometry>
                </mxCell>
                <mxCell id="36" value="&lt;div&gt;- invoiceId: int&lt;/div&gt;&lt;div&gt;- issueDate: Date&lt;/div&gt;&lt;div&gt;- amount: double&lt;span style=&quot;background-color: initial;&quot;&gt;&amp;nbsp; &amp;nbsp; &amp;nbsp; &amp;nbsp; &amp;nbsp; &amp;nbsp; &amp;nbsp; &amp;nbsp; &amp;nbsp; &amp;nbsp;&lt;/span&gt;&lt;/div&gt;&lt;div&gt;- appointment: Appointment&lt;/div&gt;" style="text;html=1;align=left;verticalAlign=middle;resizable=0;points=[];autosize=1;strokeColor=none;fillColor=none;" vertex="1" parent="35">
                    <mxGeometry y="26" width="470" height="70" as="geometry"/>
                </mxCell>
                <mxCell id="37" value="" style="line;html=1;strokeWidth=1;align=left;verticalAlign=middle;spacingTop=-1;spacingLeft=3;spacingRight=3;rotatable=0;labelPosition=right;points=[];portConstraint=eastwest;" vertex="1" parent="35">
                    <mxGeometry y="96" width="470" height="40" as="geometry"/>
                </mxCell>
                <mxCell id="38" value="&lt;div&gt;&lt;div&gt;+ Invoice(invoiceId: int, issueDate: Date, amount: double, appointment: Appointment)&lt;/div&gt;&lt;div&gt;+ getInvoiceId(): int&amp;nbsp;&lt;/div&gt;&lt;div&gt;+ setInvoiceId(invoiceId: int): void&lt;/div&gt;&lt;div&gt;+ getIssueDate(): Date&lt;/div&gt;&lt;div&gt;+ setIssueDate(issueDate: Date): void&lt;/div&gt;&lt;div&gt;+ getAmount(): double&lt;/div&gt;&lt;div&gt;+ setAmount(amount: double): void&lt;/div&gt;&lt;div&gt;+ getAppointment(): Appointment&lt;/div&gt;&lt;div&gt;+ setAppointment(appointment: Appointment): void&lt;/div&gt;&lt;div&gt;+ generateInvoice(): void&lt;/div&gt;&lt;/div&gt;" style="text;html=1;align=left;verticalAlign=middle;resizable=0;points=[];autosize=1;strokeColor=none;fillColor=none;" vertex="1" parent="35">
                    <mxGeometry y="136" width="470" height="160" as="geometry"/>
                </mxCell>
                <mxCell id="39" style="edgeStyle=none;curved=1;rounded=0;orthogonalLoop=1;jettySize=auto;html=1;exitX=1;exitY=0.5;exitDx=0;exitDy=0;entryX=-0.003;entryY=0.688;entryDx=0;entryDy=0;entryPerimeter=0;fontSize=12;startSize=8;endSize=8;endArrow=none;endFill=0;startArrow=diamondThin;startFill=0;" edge="1" parent="1" source="3" target="7">
                    <mxGeometry relative="1" as="geometry"/>
                </mxCell>
                <mxCell id="40" value="1" style="text;html=1;align=center;verticalAlign=middle;whiteSpace=wrap;rounded=0;fontSize=16;" vertex="1" parent="1">
                    <mxGeometry x="-290" y="140" width="10" height="10" as="geometry"/>
                </mxCell>
                <mxCell id="41" value="0..*" style="text;html=1;align=center;verticalAlign=middle;whiteSpace=wrap;rounded=0;fontSize=16;" vertex="1" parent="1">
                    <mxGeometry x="-180" y="170" width="10" height="10" as="geometry"/>
                </mxCell>
                <mxCell id="42" style="edgeStyle=none;curved=0;rounded=0;orthogonalLoop=1;jettySize=auto;html=1;exitX=0.5;exitY=0;exitDx=0;exitDy=0;entryX=0.477;entryY=0.998;entryDx=0;entryDy=0;entryPerimeter=0;fontSize=12;startSize=8;endSize=8;endArrow=none;endFill=0;startArrow=none;startFill=0;" edge="1" parent="1" source="15" target="5">
                    <mxGeometry relative="1" as="geometry">
                        <Array as="points">
                            <mxPoint x="-420" y="480"/>
                            <mxPoint x="-515" y="480"/>
                        </Array>
                    </mxGeometry>
                </mxCell>
                <mxCell id="43" value="1" style="text;html=1;align=center;verticalAlign=middle;whiteSpace=wrap;rounded=0;fontSize=16;" vertex="1" parent="1">
                    <mxGeometry x="-530" y="430" width="10" height="10" as="geometry"/>
                </mxCell>
                <mxCell id="44" value="1" style="text;html=1;align=center;verticalAlign=middle;whiteSpace=wrap;rounded=0;fontSize=16;" vertex="1" parent="1">
                    <mxGeometry x="-410" y="510" width="10" height="10" as="geometry"/>
                </mxCell>
                <mxCell id="45" style="edgeStyle=none;curved=0;rounded=0;orthogonalLoop=1;jettySize=auto;html=1;exitX=0.5;exitY=0;exitDx=0;exitDy=0;entryX=0.998;entryY=0.712;entryDx=0;entryDy=0;entryPerimeter=0;fontSize=12;startSize=8;endSize=8;startArrow=none;startFill=0;endArrow=none;endFill=0;" edge="1" parent="1" source="24" target="5">
                    <mxGeometry relative="1" as="geometry">
                        <Array as="points">
                            <mxPoint x="205" y="480"/>
                            <mxPoint x="-80" y="480"/>
                            <mxPoint x="-80" y="392"/>
                        </Array>
                    </mxGeometry>
                </mxCell>
                <mxCell id="46" value="0..*" style="text;html=1;align=center;verticalAlign=middle;whiteSpace=wrap;rounded=0;fontSize=16;" vertex="1" parent="1">
                    <mxGeometry x="-280" y="373" width="10" height="10" as="geometry"/>
                </mxCell>
                <mxCell id="47" value="1" style="text;html=1;align=center;verticalAlign=middle;whiteSpace=wrap;rounded=0;fontSize=16;" vertex="1" parent="1">
                    <mxGeometry x="190" y="500" width="10" height="10" as="geometry"/>
                </mxCell>
                <mxCell id="48" value="&lt;font style=&quot;font-size: 15px;&quot;&gt;manages&lt;/font&gt;" style="text;html=1;align=center;verticalAlign=middle;whiteSpace=wrap;rounded=0;fontSize=16;" vertex="1" parent="1">
                    <mxGeometry x="450" y="450" width="60" height="30" as="geometry"/>
                </mxCell>
                <mxCell id="49" value="1" style="text;html=1;align=center;verticalAlign=middle;whiteSpace=wrap;rounded=0;fontSize=16;" vertex="1" parent="1">
                    <mxGeometry x="280" y="500" width="10" height="10" as="geometry"/>
                </mxCell>
                <mxCell id="50" value="0..*" style="text;html=1;align=center;verticalAlign=middle;whiteSpace=wrap;rounded=0;fontSize=16;" vertex="1" parent="1">
                    <mxGeometry x="414" y="574" width="10" height="10" as="geometry"/>
                </mxCell>
                <mxCell id="51" value="&lt;font style=&quot;font-size: 15px;&quot;&gt;&amp;lt;&lt;font style=&quot;font-size: 15px;&quot;&gt;&amp;lt;uses&amp;gt;&amp;gt;&lt;/font&gt;&lt;/font&gt;" style="text;html=1;align=center;verticalAlign=middle;whiteSpace=wrap;rounded=0;fontSize=16;" vertex="1" parent="1">
                    <mxGeometry x="810" y="400" width="60" height="30" as="geometry"/>
                </mxCell>
                <mxCell id="52" value="1" style="text;html=1;align=center;verticalAlign=middle;whiteSpace=wrap;rounded=0;fontSize=16;" vertex="1" parent="1">
                    <mxGeometry x="772" y="322" width="10" height="10" as="geometry"/>
                </mxCell>
                <mxCell id="53" value="1" style="text;html=1;align=center;verticalAlign=middle;whiteSpace=wrap;rounded=0;fontSize=16;" vertex="1" parent="1">
                    <mxGeometry x="772" y="509" width="10" height="10" as="geometry"/>
                </mxCell>
                <mxCell id="54" value="IllegalArgumentException" style="swimlane;fontStyle=0;align=center;verticalAlign=top;childLayout=stackLayout;horizontal=1;startSize=26;horizontalStack=0;resizeParent=1;resizeLast=0;collapsible=1;marginBottom=0;rounded=0;shadow=0;strokeWidth=1;" vertex="1" parent="1">
                    <mxGeometry x="-150" y="1560" width="250" height="70" as="geometry">
                        <mxRectangle x="550" y="140" width="160" height="26" as="alternateBounds"/>
                    </mxGeometry>
                </mxCell>
                <mxCell id="55" value="" style="line;html=1;strokeWidth=1;align=left;verticalAlign=middle;spacingTop=-1;spacingLeft=3;spacingRight=3;rotatable=0;labelPosition=right;points=[];portConstraint=eastwest;" vertex="1" parent="54">
                    <mxGeometry y="26" width="250" height="8" as="geometry"/>
                </mxCell>
                <mxCell id="56" value="+ IllegalArgumentException()" style="text;html=1;align=left;verticalAlign=middle;resizable=0;points=[];autosize=1;strokeColor=none;fillColor=none;" vertex="1" parent="54">
                    <mxGeometry y="34" width="250" height="30" as="geometry"/>
                </mxCell>
                <mxCell id="57" style="edgeStyle=none;curved=0;rounded=0;orthogonalLoop=1;jettySize=auto;html=1;exitX=0.25;exitY=1;exitDx=0;exitDy=0;entryX=0.925;entryY=-0.136;entryDx=0;entryDy=0;entryPerimeter=0;fontSize=12;startSize=8;endSize=8;dashed=1;" edge="1" parent="1" source="35" target="54">
                    <mxGeometry relative="1" as="geometry">
                        <Array as="points">
                            <mxPoint x="326" y="1520"/>
                            <mxPoint x="80" y="1520"/>
                        </Array>
                    </mxGeometry>
                </mxCell>
                <mxCell id="58" style="edgeStyle=none;curved=0;rounded=0;orthogonalLoop=1;jettySize=auto;html=1;exitX=0.5;exitY=0;exitDx=0;exitDy=0;fontSize=12;startSize=8;endSize=8;startArrow=classic;startFill=1;endArrow=none;endFill=0;dashed=1;" edge="1" parent="1" source="54">
                    <mxGeometry relative="1" as="geometry">
                        <mxPoint x="-25" y="1400" as="targetPoint"/>
                    </mxGeometry>
                </mxCell>
                <mxCell id="59" style="edgeStyle=none;curved=0;rounded=0;orthogonalLoop=1;jettySize=auto;html=1;exitX=0.282;exitY=-0.062;exitDx=0;exitDy=0;entryX=0.053;entryY=1.006;entryDx=0;entryDy=0;entryPerimeter=0;fontSize=12;startSize=8;endSize=8;exitPerimeter=0;startArrow=classic;startFill=1;endArrow=none;endFill=0;dashed=1;" edge="1" parent="1" source="54" target="18">
                    <mxGeometry relative="1" as="geometry">
                        <Array as="points">
                            <mxPoint x="-80" y="1520"/>
                            <mxPoint x="-684" y="1520"/>
                        </Array>
                    </mxGeometry>
                </mxCell>
                <mxCell id="60" value="&amp;lt;&amp;lt;throws&amp;gt;&amp;gt;" style="text;html=1;align=center;verticalAlign=middle;whiteSpace=wrap;rounded=0;fontSize=16;" vertex="1" parent="1">
                    <mxGeometry x="-100" y="1430" width="60" height="30" as="geometry"/>
                </mxCell>
                <mxCell id="61" value="&amp;lt;&amp;lt;throws&amp;gt;&amp;gt;" style="text;html=1;align=center;verticalAlign=middle;whiteSpace=wrap;rounded=0;fontSize=16;" vertex="1" parent="1">
                    <mxGeometry x="104" y="1480" width="60" height="30" as="geometry"/>
                </mxCell>
                <mxCell id="62" value="&amp;lt;&amp;lt;throws&amp;gt;&amp;gt;" style="text;html=1;align=center;verticalAlign=middle;whiteSpace=wrap;rounded=0;fontSize=16;" vertex="1" parent="1">
                    <mxGeometry x="-185" y="1480" width="60" height="30" as="geometry"/>
                </mxCell>
                <mxCell id="63" value="InvalidIdException" style="swimlane;fontStyle=0;align=center;verticalAlign=top;childLayout=stackLayout;horizontal=1;startSize=26;horizontalStack=0;resizeParent=1;resizeLast=0;collapsible=1;marginBottom=0;rounded=0;shadow=0;strokeWidth=1;" vertex="1" parent="1">
                    <mxGeometry x="464" y="830" width="250" height="70" as="geometry">
                        <mxRectangle x="550" y="140" width="160" height="26" as="alternateBounds"/>
                    </mxGeometry>
                </mxCell>
                <mxCell id="64" value="" style="line;html=1;strokeWidth=1;align=left;verticalAlign=middle;spacingTop=-1;spacingLeft=3;spacingRight=3;rotatable=0;labelPosition=right;points=[];portConstraint=eastwest;" vertex="1" parent="63">
                    <mxGeometry y="26" width="250" height="8" as="geometry"/>
                </mxCell>
                <mxCell id="65" value="+ InvalidIdException()" style="text;html=1;align=left;verticalAlign=middle;resizable=0;points=[];autosize=1;strokeColor=none;fillColor=none;" vertex="1" parent="63">
                    <mxGeometry y="34" width="250" height="30" as="geometry"/>
                </mxCell>
                <mxCell id="66" style="edgeStyle=none;curved=0;rounded=0;orthogonalLoop=1;jettySize=auto;html=1;exitX=0.25;exitY=0;exitDx=0;exitDy=0;entryX=1.008;entryY=0.438;entryDx=0;entryDy=0;entryPerimeter=0;fontSize=12;startSize=8;endSize=8;dashed=1;startArrow=classic;startFill=1;endArrow=none;endFill=0;" edge="1" parent="1" source="63" target="27">
                    <mxGeometry relative="1" as="geometry">
                        <Array as="points">
                            <mxPoint x="527" y="756"/>
                        </Array>
                    </mxGeometry>
                </mxCell>
                <mxCell id="67" style="edgeStyle=none;curved=0;rounded=0;orthogonalLoop=1;jettySize=auto;html=1;exitX=0.379;exitY=-0.024;exitDx=0;exitDy=0;entryX=1.004;entryY=0.562;entryDx=0;entryDy=0;entryPerimeter=0;fontSize=12;startSize=8;endSize=8;exitPerimeter=0;dashed=1;startArrow=classic;startFill=1;endArrow=none;endFill=0;" edge="1" parent="1" source="63" target="5">
                    <mxGeometry relative="1" as="geometry">
                        <Array as="points">
                            <mxPoint x="560" y="360"/>
                            <mxPoint x="130" y="360"/>
                        </Array>
                    </mxGeometry>
                </mxCell>
                <mxCell id="68" style="edgeStyle=none;curved=0;rounded=0;orthogonalLoop=1;jettySize=auto;html=1;exitX=0.704;exitY=0.016;exitDx=0;exitDy=0;entryX=1.011;entryY=0.881;entryDx=0;entryDy=0;entryPerimeter=0;fontSize=12;startSize=8;endSize=8;exitPerimeter=0;dashed=1;startArrow=classic;startFill=1;endArrow=none;endFill=0;" edge="1" parent="1" source="63" target="9">
                    <mxGeometry relative="1" as="geometry">
                        <Array as="points">
                            <mxPoint x="640" y="321"/>
                        </Array>
                    </mxGeometry>
                </mxCell>
                <mxCell id="69" value="&amp;lt;&amp;lt;throws&amp;gt;&amp;gt;" style="text;html=1;align=center;verticalAlign=middle;whiteSpace=wrap;rounded=0;fontSize=16;" vertex="1" parent="1">
                    <mxGeometry x="660" y="770" width="60" height="30" as="geometry"/>
                </mxCell>
                <mxCell id="70" value="&amp;lt;&amp;lt;throws&amp;gt;&amp;gt;" style="text;html=1;align=center;verticalAlign=middle;whiteSpace=wrap;rounded=0;fontSize=16;" vertex="1" parent="1">
                    <mxGeometry x="440" y="720" width="60" height="30" as="geometry"/>
                </mxCell>
                <mxCell id="71" value="&amp;lt;&amp;lt;throws&amp;gt;&amp;gt;" style="text;html=1;align=center;verticalAlign=middle;whiteSpace=wrap;rounded=0;fontSize=16;" vertex="1" parent="1">
                    <mxGeometry x="490" y="630" width="60" height="30" as="geometry"/>
                </mxCell>
                <mxCell id="72" style="edgeStyle=none;curved=1;rounded=0;orthogonalLoop=1;jettySize=auto;html=1;exitX=0;exitY=0.25;exitDx=0;exitDy=0;entryX=0.999;entryY=0.865;entryDx=0;entryDy=0;entryPerimeter=0;fontSize=12;startSize=8;endSize=8;endArrow=none;endFill=0;startArrow=diamondThin;startFill=0;" edge="1" parent="1" source="35" target="31">
                    <mxGeometry relative="1" as="geometry"/>
                </mxCell>
                <mxCell id="73" value="1" style="text;html=1;align=center;verticalAlign=middle;whiteSpace=wrap;rounded=0;fontSize=16;" vertex="1" parent="1">
                    <mxGeometry x="110" y="1100" width="10" height="10" as="geometry"/>
                </mxCell>
                <mxCell id="74" value="1" style="text;html=1;align=center;verticalAlign=middle;whiteSpace=wrap;rounded=0;fontSize=16;" vertex="1" parent="1">
                    <mxGeometry x="187" y="1142" width="10" height="10" as="geometry"/>
                </mxCell>
                <mxCell id="75" style="edgeStyle=none;curved=0;rounded=0;orthogonalLoop=1;jettySize=auto;html=1;exitX=1;exitY=0.557;exitDx=0;exitDy=0;entryX=-0.01;entryY=0.811;entryDx=0;entryDy=0;entryPerimeter=0;fontSize=12;startSize=8;endSize=8;exitPerimeter=0;endArrow=diamondThin;endFill=1;" edge="1" parent="1" source="14" target="18">
                    <mxGeometry relative="1" as="geometry">
                        <Array as="points">
                            <mxPoint x="1020" y="250"/>
                            <mxPoint x="1020" y="1690"/>
                            <mxPoint x="-760" y="1690"/>
                            <mxPoint x="-760" y="888"/>
                        </Array>
                    </mxGeometry>
                </mxCell>
            </root>
        </mxGraphModel>
    </diagram>
</mxfile>